<svg width="30" height="30" viewBox="0 0 30 30" fill="none" xmlns="http://www.w3.org/2000/svg">
<path d="M6.84292 21.8792C6.84708 21.8692 6.8475 21.8583 6.85083 21.8475C6.88495 21.7516 6.88237 21.6464 6.8436 21.5522C6.80483 21.4581 6.73261 21.3816 6.64083 21.3375C6.1243 21.0843 5.67842 20.7073 5.34292 20.24C4.86095 19.5617 4.59978 18.7513 4.595 17.9192C4.60399 17.809 4.56889 17.6998 4.4974 17.6155C4.42592 17.5312 4.3239 17.4787 4.21375 17.4696C4.2 17.4687 4.18792 17.4746 4.17458 17.475L4.17125 17.4742H4.16708C3.82627 17.4573 3.48607 17.5179 3.17211 17.6516C2.85815 17.7853 2.57862 17.9885 2.35458 18.2458C1.91917 18.8092 1.83125 19.6283 2.09625 20.6879C2.20839 21.0529 2.39353 21.3912 2.64042 21.6825C2.88732 21.9737 3.19082 22.2117 3.5325 22.3821C3.88542 22.5422 4.26913 22.6232 4.65667 22.6192C5.34462 22.5961 6.01907 22.4218 6.63208 22.1087C6.71708 22.0537 6.78833 21.9796 6.83917 21.8921C6.84167 21.8879 6.84083 21.8837 6.8425 21.8796" fill="#F4AA41"/>
<path d="M19.7525 13.1917C19.6575 13.1221 17.4104 11.5 15.7617 12.3846C15.7171 12.4083 15.6796 12.4433 15.6367 12.4704C14.6708 12.2046 13.0358 11.9671 11.8779 12.9137C11.8429 12.9421 11.8146 12.9775 11.7817 13.0075C11.0717 12.9254 8.71917 12.7771 7.39 14.17C7.12097 14.4559 6.90936 14.7909 6.76667 15.1567C6.45167 15.2079 4.66875 15.5567 4.00083 16.9608C3.52583 17.9592 3.73833 19.2083 4.63625 20.6808C4.65083 20.7037 5.79042 22.4421 7.8375 22.4421C8.51613 22.4276 9.18218 22.256 9.78333 21.9408C9.96292 21.9692 10.1446 21.9837 10.3267 21.9837C10.5321 21.9837 10.7367 21.9671 10.9392 21.9354C11.4367 21.8537 11.9193 21.6981 12.3708 21.4737C12.3954 21.4615 12.4225 21.4555 12.4499 21.4563C12.4773 21.457 12.5041 21.4644 12.5279 21.4779C12.8135 21.6355 13.1351 21.7163 13.4613 21.7125C14.1137 21.6779 14.74 21.4447 15.2563 21.0442C15.258 21.0428 15.26 21.0419 15.2622 21.0414C15.2643 21.0409 15.2665 21.0409 15.2687 21.0414C15.2708 21.0419 15.2728 21.0428 15.2746 21.0442C15.2763 21.0455 15.2777 21.0472 15.2788 21.0492C15.4279 21.3442 15.5608 21.6471 15.6763 21.9567L15.7113 22.08C15.8163 22.46 16.0733 23.3933 17.1363 23.3929C17.3013 23.3917 17.4654 23.3721 17.6263 23.3354C18.4546 23.1521 18.8388 22.2112 18.6804 20.7537C18.6792 20.7429 18.6729 20.7346 18.6708 20.7242C18.6653 20.6985 18.6574 20.6733 18.6471 20.6492C18.6371 20.6214 18.6241 20.5949 18.6083 20.57C18.6029 20.5625 18.6021 20.5533 18.5958 20.545C17.8667 19.5958 17.7963 18.1337 18.3875 16.1992C18.7438 15.0333 19.1933 14.2533 19.7238 13.8825L19.73 13.8758C19.7877 13.8402 19.8358 13.7909 19.8698 13.7322C19.9039 13.6736 19.9228 13.6074 19.9251 13.5396C19.9273 13.4718 19.9127 13.4045 19.8826 13.3437C19.8525 13.2829 19.8078 13.231 19.7525 13.1917Z" fill="#B1CC33"/>
<path d="M23.1833 14.7508C23.172 14.6973 23.1502 14.6465 23.1191 14.6013C23.0881 14.5562 23.0485 14.5177 23.0025 14.4879C22.9812 14.4107 22.9374 14.3415 22.8767 14.2892C22.7879 14.2171 20.6913 12.5233 19.0388 13.2829C17.9592 13.7787 17.3846 15.1642 17.3308 17.4004C17.2938 18.9379 17.4838 20.1237 17.895 20.9212C18.0758 21.3158 18.2333 21.7207 18.3667 22.1337L18.3925 22.2487C18.4725 22.6283 18.6758 23.5862 19.8313 23.5858C19.9413 23.5854 20.0513 23.5775 20.1604 23.5625C20.3794 23.5312 20.5858 23.4413 20.7577 23.3022C20.9297 23.1631 21.0608 22.9801 21.1371 22.7725C21.1451 22.7546 21.1518 22.736 21.1571 22.7171C21.2521 22.375 21.3071 22.0229 21.3204 21.6679C21.3204 21.6554 21.3146 21.6446 21.3133 21.6325C21.3062 21.5767 21.2898 21.5225 21.265 21.4721C21.2608 21.4637 21.2604 21.4546 21.2554 21.4471C21.0158 21.0658 20.8083 20.1946 21.1833 18.2062C21.5179 16.4312 22.0983 15.4071 22.8625 15.245C22.9706 15.222 23.0651 15.157 23.1252 15.0643C23.1854 14.9717 23.2063 14.8589 23.1833 14.7508Z" fill="#B1CC33"/>
<path d="M22.75 23.8542C22.5585 23.8738 22.365 23.854 22.1815 23.796C21.9979 23.738 21.8282 23.643 21.6828 23.5169C21.5373 23.3908 21.4192 23.2363 21.3358 23.0628C21.2523 22.8894 21.2053 22.7007 21.1975 22.5083L21.1796 22.4054C21.0744 22.0269 20.9456 21.6553 20.7937 21.2929C20.4358 20.54 20.32 19.4558 20.4508 18.0767C20.6337 16.1496 21.245 14.9675 22.2675 14.5617C23.8667 13.9271 25.8025 15.5079 26.0579 15.725C26.3178 15.9109 26.5354 16.1496 26.6966 16.4255C26.8577 16.7013 26.9587 17.0082 26.9929 17.3258C27.2129 18.9688 26.0429 21.0833 23.5154 23.6112C23.4955 23.6312 23.4736 23.6491 23.45 23.6646C23.2687 23.7829 23.0583 23.8479 22.8417 23.8529C22.8111 23.8542 22.7806 23.8543 22.75 23.8542Z" fill="#B1CC33"/>
<path d="M27.3229 18.4029C27.1939 18.3121 27.0586 18.2306 26.9179 18.1592C26.8693 18.1105 26.8091 18.0749 26.7429 18.0558C26.6361 18.0277 26.5224 18.0431 26.4269 18.0987C26.3314 18.1542 26.2618 18.2453 26.2333 18.3521C25.8678 19.5242 25.3074 20.6264 24.5758 21.6125C24.5446 21.6575 24.5226 21.7082 24.5111 21.7617C24.4995 21.8152 24.4986 21.8705 24.5083 21.9244C24.5181 21.9782 24.5384 22.0296 24.5681 22.0756C24.5978 22.1216 24.6362 22.1614 24.6813 22.1925L24.6871 22.195C24.8463 22.4054 25.0746 22.5533 25.3317 22.6138C25.4779 22.645 25.6288 22.6508 25.7771 22.6313C26.0721 22.5881 26.3543 22.4815 26.6042 22.3188C26.6157 22.3109 26.6268 22.3024 26.6375 22.2933C27.5983 21.4808 28.0746 20.6617 28.0525 19.8588C28.0401 19.5785 27.9688 19.304 27.8431 19.0531C27.7175 18.8023 27.54 18.5807 27.3229 18.4029Z" fill="#5C9E31"/>
<path d="M6.86958 15.5625C6.86958 15.5625 2.37583 16.1746 4.9875 20.4571C5.31887 20.941 5.76356 21.3366 6.28282 21.6093C6.80208 21.882 7.38016 22.0236 7.96667 22.0217" stroke="black" stroke-width="0.833333" stroke-linecap="round" stroke-linejoin="round"/>
<path d="M4.17167 17.8908C3.39583 17.8983 1.90583 18.2075 2.49833 20.5783C2.49833 20.5783 3.22708 23.2571 6.45458 21.7321M11.9221 13.4458C11.9221 13.4458 5.87125 12.445 7.0625 18.02C7.77083 21.3367 9.56875 21.7292 10.875 21.5242" stroke="black" stroke-width="0.833333" stroke-linecap="round" stroke-linejoin="round"/>
<path d="M15.6738 12.9138C14.2929 12.5013 10.6404 11.8863 11.1113 17.1088C11.4696 21.0863 12.9067 21.4963 13.9488 21.2321" stroke="black" stroke-width="0.833333" stroke-linecap="round" stroke-linejoin="round"/>
<path d="M19.5062 13.5279C19.5062 13.5279 14.3508 9.75501 14.6742 16.9325C14.7521 18.6679 15.0508 19.78 15.455 20.4721L15.4662 20.4908C15.6937 20.9268 15.8967 21.3751 16.0742 21.8338C16.2071 22.2646 16.3292 23.1954 17.5358 22.9288C17.615 22.9117 17.6908 22.8821 17.7604 22.8413" stroke="black" stroke-width="0.833333" stroke-linecap="round" stroke-linejoin="round"/>
<path d="M22.6125 14.6121C22.6125 14.6121 17.9063 10.7621 17.7471 17.4108C17.7088 19.0183 17.9225 20.0663 18.2658 20.7338L18.2754 20.7521C18.465 21.1699 18.6306 21.5983 18.7713 22.035C18.8713 22.4421 18.9271 23.31 20.1046 23.1496C20.2486 23.1316 20.3839 23.0711 20.4933 22.9758" stroke="black" stroke-width="0.833333" stroke-linecap="round" stroke-linejoin="round"/>
<path d="M23.2208 23.3167C23.1042 23.3925 22.9679 23.4342 22.8288 23.4367C21.6646 23.4742 21.6621 22.6963 21.5892 22.325C21.477 21.9216 21.3407 21.5253 21.1808 21.1383L21.1725 21.1217C20.8767 20.4967 20.73 19.5442 20.8658 18.1167C21.4262 12.2117 25.8083 16.06 25.8083 16.06C25.8083 16.06 28.4204 17.5517 24.1667 22.3183M7.96583 22.0221C7.96583 22.0221 8.53375 22.1888 7.96583 23.1421M10.8746 21.5221C10.8746 21.5221 11.4421 21.6888 10.8746 22.6421M13.9492 21.2325C13.9492 21.2325 14.5167 21.3992 13.9492 22.3529" stroke="black" stroke-width="0.833333" stroke-linecap="round" stroke-linejoin="round"/>
<path d="M24.9183 21.85C25.4012 22.6575 26.385 21.9942 26.385 21.9942C28.7633 19.9821 27.0892 18.7171 27.0892 18.7171C26.9511 18.6191 26.8044 18.5339 26.6508 18.4625" stroke="black" stroke-width="0.78375" stroke-linecap="round" stroke-linejoin="round"/>
</svg>
