<svg width="30" height="30" viewBox="0 0 30 30" fill="none" xmlns="http://www.w3.org/2000/svg">
<path d="M10 8.75V8.7625M20 18.75V18.7625M13.535 12.285C14.2344 11.5858 14.7108 10.6949 14.9038 9.72494C15.0969 8.75499 14.9979 7.74958 14.6195 6.83586C14.2412 5.92214 13.6003 5.14116 12.778 4.59169C11.9557 4.04221 10.989 3.74893 10 3.74893C9.01103 3.74893 8.04427 4.04221 7.22199 4.59169C6.39972 5.14116 5.75885 5.92214 5.38046 6.83586C5.00207 7.74958 4.90314 8.75499 5.09619 9.72494C5.28923 10.6949 5.76559 11.5858 6.465 12.285L10 15.8212L13.535 12.285ZM23.535 22.285C24.2344 21.5858 24.7108 20.6949 24.9038 19.7249C25.0969 18.755 24.9979 17.7496 24.6195 16.8359C24.2411 15.9221 23.6003 15.1412 22.778 14.5917C21.9557 14.0422 20.989 13.7489 20 13.7489C19.011 13.7489 18.0443 14.0422 17.222 14.5917C16.3997 15.1412 15.7589 15.9221 15.3805 16.8359C15.0021 17.7496 14.9031 18.755 15.0962 19.7249C15.2892 20.6949 15.7656 21.5858 16.465 22.285L20 25.8212L23.535 22.285Z" stroke="#0FA958" stroke-width="2.5" stroke-linecap="round" stroke-linejoin="round"/>
</svg>
