<svg width="31" height="30" viewBox="0 0 31 30" fill="none" xmlns="http://www.w3.org/2000/svg">
<g clip-path="url(#clip0_134_1231)">
<path d="M13 25.8333C13 27.6742 12.3408 29.1667 10.5 29.1667H4.66666C1.33333 29.1667 1.33333 17.5 4.66666 17.5H10.5C12.3408 17.5 13 18.9925 13 20.8333V25.8333Z" fill="#553788"/>
<path d="M28.8333 27.5H28V19.1667H28.8333C29.0543 19.1667 29.2663 19.0789 29.4226 18.9226C29.5789 18.7663 29.6667 18.5543 29.6667 18.3333C29.6667 18.1123 29.5789 17.9004 29.4226 17.7441C29.2663 17.5878 29.0543 17.5 28.8333 17.5H8.83333C5.5 17.5 5.5 29.1667 8.83333 29.1667H28.8333C29.0543 29.1667 29.2663 29.0789 29.4226 28.9226C29.5789 28.7663 29.6667 28.5543 29.6667 28.3333C29.6667 28.1123 29.5789 27.9004 29.4226 27.7441C29.2663 27.5878 29.0543 27.5 28.8333 27.5Z" fill="#9266CC"/>
<path d="M28.9767 27.5H9.66667C8 27.5 8 19.1667 9.66667 19.1667H28.9767C29.8967 19.1667 29.8967 27.5 28.9767 27.5Z" fill="#CCD6DD"/>
<path d="M10.0833 20.8333H29.5417C29.4292 19.8542 29.2417 19.1667 28.9767 19.1667H9.66667C8.29083 19.1667 8.05167 24.84 8.9475 26.8233C8.62083 24.3575 8.99917 20.8333 10.0833 20.8333Z" fill="#99AAB5"/>
<path d="M10.5 6.66666C10.5 7.55072 10.1488 8.39856 9.52369 9.02369C8.89857 9.64881 8.05072 10 7.16667 10H3.83333C0.499999 10 0.499999 0.833328 3.83333 0.833328H7.16667C8.05072 0.833328 8.89857 1.18452 9.52369 1.80964C10.1488 2.43476 10.5 3.28261 10.5 4.16666V6.66666Z" fill="#226699"/>
<path d="M26.3333 8.33333H25.5V2.5H26.3333C26.5543 2.5 26.7663 2.4122 26.9226 2.25592C27.0789 2.09964 27.1667 1.88768 27.1667 1.66666C27.1667 1.44565 27.0789 1.23369 26.9226 1.07741C26.7663 0.921126 26.5543 0.833328 26.3333 0.833328H6.33333C3 0.833328 3 10 6.33333 10H26.3333C26.5543 10 26.7663 9.9122 26.9226 9.75592C27.0789 9.59964 27.1667 9.38768 27.1667 9.16666C27.1667 8.94565 27.0789 8.73369 26.9226 8.57741C26.7663 8.42113 26.5543 8.33333 26.3333 8.33333Z" fill="#55ACEE"/>
<path d="M26.4767 8.33333H7.16666C5.5 8.33333 5.5 2.5 7.16666 2.5H26.4767C27.3967 2.5 27.3967 8.33333 26.4767 8.33333Z" fill="#CCD6DD"/>
<path d="M7.16667 4.16667H27.1042C27.0092 3.22917 26.8008 2.5 26.4767 2.5H7.16667C6.1725 2.5 5.77583 4.57417 5.96833 6.25C6.09833 5.11833 6.49417 4.16667 7.16667 4.16667Z" fill="#99AAB5"/>
<path d="M17.1667 14.1667C17.1667 15.0507 16.8155 15.8986 16.1904 16.5237C15.5652 17.1488 14.7174 17.5 13.8333 17.5H5.5C2.16667 17.5 2.16667 10 5.5 10H13.8333C14.7174 10 15.5652 10.3512 16.1904 10.9763C16.8155 11.6014 17.1667 12.4493 17.1667 13.3333V14.1667Z" fill="#F4900C"/>
<path d="M29.6667 15.8333H28.8333V11.6667H29.6667C29.8877 11.6667 30.0996 11.5789 30.2559 11.4226C30.4122 11.2663 30.5 11.0543 30.5 10.8333C30.5 10.6123 30.4122 10.4004 30.2559 10.2441C30.0996 10.0878 29.8877 10 29.6667 10H13C9.66667 10 9.66667 17.5 13 17.5H29.6667C29.8877 17.5 30.0996 17.4122 30.2559 17.2559C30.4122 17.0996 30.5 16.8877 30.5 16.6667C30.5 16.4457 30.4122 16.2337 30.2559 16.0774C30.0996 15.9211 29.8877 15.8333 29.6667 15.8333Z" fill="#FFAC33"/>
<path d="M29.81 15.8333H13.8333C12.1667 15.8333 12.1667 11.6667 13.8333 11.6667H29.81C30.73 11.6667 30.73 15.8333 29.81 15.8333Z" fill="#CCD6DD"/>
<path d="M13.8333 13.3333H30.4867C30.4325 12.4483 30.2083 11.6667 29.81 11.6667H13.8333C12.7717 11.6667 12.3892 13.3558 12.6808 14.5833C12.8458 13.8842 13.2283 13.3333 13.8333 13.3333Z" fill="#99AAB5"/>
</g>
<defs>
<clipPath id="clip0_134_1231">
<rect width="30" height="30" fill="white" transform="translate(0.5)"/>
</clipPath>
</defs>
</svg>
