<svg width="31" height="30" viewBox="0 0 31 30" fill="none" xmlns="http://www.w3.org/2000/svg">
<path d="M2.09609 8.32031V25.9055C2.09609 26.6367 2.77578 27.1266 3.57734 27.6891C4.40469 28.2703 4.86172 28.2164 5.25781 28.2164L27.725 28.3617C28.6086 28.3617 28.9039 27.7594 28.9039 27.1102V8.32031H2.09609Z" fill="#BDBDBD"/>
<path opacity="0.29" d="M28.9039 27.1078L26.9633 25.1133V8.32031L28.9039 9.49688V27.1078Z" fill="url(#paint0_linear_100_645)"/>
<path d="M28.9039 9.66094L27.3898 8.71172L25.0203 3.28125H26.2953C28.557 3.28125 28.9039 4.58672 28.9039 5.03203V9.66094Z" fill="#C62828"/>
<path d="M2.78516 8.51485V25.4203C2.78516 26.0531 3.29844 26.5641 3.92891 26.5641H26.1594C26.7922 26.5641 27.3828 26.093 27.3828 25.4602V8.51485H2.78516Z" fill="#FAFAFA"/>
<path d="M27.3898 8.71172H2.09609V4.34766C2.09609 3.75937 2.69844 3.28125 3.44375 3.28125H26.082C26.8297 3.28125 27.4344 3.76172 27.4297 4.35469L27.3898 8.71172Z" fill="#F44336"/>
<path d="M24.807 27.3328C24.0617 27.4242 23.3164 27.4617 22.5711 27.5273C21.8258 27.5742 21.0805 27.6164 20.3352 27.6422C19.5898 27.6797 18.8445 27.6867 18.0992 27.7078L15.8633 27.7289L13.6273 27.7078C12.882 27.6867 12.1367 27.6773 11.3914 27.6422C10.6461 27.6164 9.90078 27.5742 9.15547 27.5273C8.41016 27.4617 7.66485 27.4219 6.91953 27.3328V27.2859L15.8609 27.2625L24.8023 27.2859V27.3328H24.807Z" fill="#757575"/>
<path d="M10.4516 10.5656V13.4063H4.2875V24.9492H16.5102V22.0734H25.5898V10.5656H10.4516Z" fill="#B3E5FC"/>
<path d="M4.97891 5.41406C5.36205 5.41406 5.67266 5.06778 5.67266 4.64062C5.67266 4.21347 5.36205 3.86719 4.97891 3.86719C4.59576 3.86719 4.28516 4.21347 4.28516 4.64062C4.28516 5.06778 4.59576 5.41406 4.97891 5.41406Z" fill="#AF1E1E"/>
<path d="M5.3 4.00312C5.20391 3.80156 5.13828 3.55078 5.13828 3.28125C5.13828 2.65547 5.46407 2.12578 5.85078 2.12578C6.2375 2.12578 6.56328 2.65547 6.56328 3.28125H7.61328C7.61328 1.99922 6.82344 0.953903 5.85313 0.953903C4.88282 0.953903 4.09297 1.99687 4.09297 3.28125C4.09297 3.73828 4.19375 4.1625 4.36485 4.52343C4.52188 4.84922 4.85703 4.99453 5.15469 4.8375C5.40313 4.70156 5.43594 4.28437 5.3 4.00312Z" fill="#94D1E0"/>
<path d="M7.61328 3.28124C7.61328 2.49609 7.31562 1.80234 6.86562 1.38046C6.87031 1.39453 6.99922 1.72968 6.8164 2.05078C6.63125 2.3789 6.24687 2.32734 6.24687 2.32734C6.43672 2.53828 6.56328 2.88984 6.56328 3.28124H7.61328Z" fill="#2F7889"/>
<path d="M8.84141 5.41406C9.22456 5.41406 9.53516 5.06778 9.53516 4.64062C9.53516 4.21347 9.22456 3.86719 8.84141 3.86719C8.45826 3.86719 8.14766 4.21347 8.14766 4.64062C8.14766 5.06778 8.45826 5.41406 8.84141 5.41406Z" fill="#AF1E1E"/>
<path d="M9.1625 4.00312C9.0664 3.80156 9.00078 3.55078 9.00078 3.28125C9.00078 2.65547 9.32656 2.12578 9.71328 2.12578C10.1 2.12578 10.4258 2.65547 10.4258 3.28125H11.4758C11.4758 1.99922 10.6859 0.953903 9.71562 0.953903C8.74531 0.953903 7.95547 1.99687 7.95547 3.28125C7.95547 3.73828 8.05625 4.1625 8.22734 4.52343C8.38437 4.84922 8.71953 4.99453 9.01719 4.8375C9.26562 4.70156 9.29844 4.28437 9.1625 4.00312Z" fill="#94D1E0"/>
<path d="M10.7281 1.38046C10.7328 1.39453 10.8617 1.72968 10.6789 2.05078C10.4938 2.37656 10.1094 2.32734 10.1094 2.32734C10.2992 2.53828 10.4258 2.88984 10.4258 3.28124H11.4781C11.4781 2.49609 11.1781 1.80234 10.7281 1.38046Z" fill="#2F7889"/>
<path d="M12.7016 5.41406C13.0847 5.41406 13.3953 5.06778 13.3953 4.64062C13.3953 4.21347 13.0847 3.86719 12.7016 3.86719C12.3184 3.86719 12.0078 4.21347 12.0078 4.64062C12.0078 5.06778 12.3184 5.41406 12.7016 5.41406Z" fill="#AF1E1E"/>
<path d="M13.025 4.00312C12.9289 3.80156 12.8633 3.55078 12.8633 3.28125C12.8633 2.65547 13.1891 2.12578 13.5758 2.12578C13.9625 2.12578 14.2883 2.65547 14.2883 3.28125H15.3383C15.3383 1.99922 14.5484 0.953903 13.5781 0.953903C12.6078 0.953903 11.818 1.99687 11.818 3.28125C11.818 3.73828 11.9188 4.1625 12.0898 4.52343C12.2469 4.84922 12.582 4.99453 12.8797 4.8375C13.1281 4.70156 13.1609 4.28437 13.025 4.00312Z" fill="#94D1E0"/>
<path d="M14.5883 1.38046C14.593 1.39453 14.7219 1.72968 14.5391 2.05078C14.3539 2.3789 13.9695 2.32734 13.9695 2.32734C14.1594 2.53828 14.2859 2.88984 14.2859 3.28124H15.343C15.3453 2.49609 15.0406 1.80234 14.5883 1.38046Z" fill="#2F7889"/>
<path d="M16.5641 5.41406C16.9472 5.41406 17.2578 5.06778 17.2578 4.64062C17.2578 4.21347 16.9472 3.86719 16.5641 3.86719C16.1809 3.86719 15.8703 4.21347 15.8703 4.64062C15.8703 5.06778 16.1809 5.41406 16.5641 5.41406Z" fill="#AF1E1E"/>
<path d="M16.8875 4.00312C16.7914 3.80156 16.7258 3.55078 16.7258 3.28125C16.7258 2.65547 17.0516 2.12578 17.4383 2.12578C17.825 2.12578 18.1508 2.65547 18.1508 3.28125H19.2008C19.2008 1.99922 18.4109 0.953903 17.4406 0.953903C16.4703 0.953903 15.6805 1.99687 15.6805 3.28125C15.6805 3.73828 15.7812 4.1625 15.9523 4.52343C16.1094 4.84922 16.4445 4.99453 16.7422 4.8375C16.9906 4.70156 17.0211 4.28437 16.8875 4.00312Z" fill="#94D1E0"/>
<path d="M18.4508 1.38046C18.4555 1.39453 18.5844 1.72968 18.4016 2.05078C18.2164 2.3789 17.832 2.32734 17.832 2.32734C18.0219 2.53828 18.1484 2.88984 18.1484 3.28124H19.2078C19.2102 2.49609 18.9031 1.80234 18.4508 1.38046Z" fill="#2F7889"/>
<path d="M20.4266 5.41406C20.8097 5.41406 21.1203 5.06778 21.1203 4.64062C21.1203 4.21347 20.8097 3.86719 20.4266 3.86719C20.0434 3.86719 19.7328 4.21347 19.7328 4.64062C19.7328 5.06778 20.0434 5.41406 20.4266 5.41406Z" fill="#AF1E1E"/>
<path d="M20.7477 4.00312C20.6516 3.80156 20.5859 3.55078 20.5859 3.28125C20.5859 2.65547 20.9117 2.12578 21.2984 2.12578C21.6852 2.12578 22.0109 2.65547 22.0109 3.28125H23.0609C23.0609 1.99922 22.2711 0.953903 21.3008 0.953903C20.3305 0.953903 19.5406 1.99687 19.5406 3.28125C19.5406 3.73828 19.6414 4.1625 19.8125 4.52343C19.9695 4.84922 20.3047 4.99453 20.6023 4.8375C20.8508 4.70156 20.8836 4.28437 20.7477 4.00312Z" fill="#94D1E0"/>
<path d="M22.3133 1.38046C22.318 1.39453 22.4469 1.72968 22.2641 2.05078C22.0789 2.3789 21.6945 2.32734 21.6945 2.32734C21.8844 2.53828 22.0109 2.88984 22.0109 3.28124H23.075C23.075 2.49609 22.7633 1.80234 22.3133 1.38046Z" fill="#2F7889"/>
<path d="M24.2891 5.41406C24.6722 5.41406 24.9828 5.06778 24.9828 4.64062C24.9828 4.21347 24.6722 3.86719 24.2891 3.86719C23.9059 3.86719 23.5953 4.21347 23.5953 4.64062C23.5953 5.06778 23.9059 5.41406 24.2891 5.41406Z" fill="#AF1E1E"/>
<path d="M24.6102 4.00312C24.5141 3.80156 24.4484 3.55078 24.4484 3.28125C24.4484 2.65547 24.7742 2.12578 25.1609 2.12578C25.5477 2.12578 25.8734 2.65547 25.8734 3.28125H26.9234C26.9234 1.99922 26.1336 0.953903 25.1633 0.953903C24.193 0.953903 23.4031 1.99687 23.4031 3.28125C23.4031 3.73828 23.5039 4.1625 23.675 4.52343C23.832 4.84922 24.1672 4.99453 24.4648 4.8375C24.7133 4.70156 24.7461 4.28437 24.6102 4.00312Z" fill="#94D1E0"/>
<path d="M26.9375 3.32344C26.9023 2.38125 26.5977 1.77656 26.1734 1.38281C26.1781 1.39687 26.307 1.73203 26.1242 2.05313C25.9391 2.38125 25.5547 2.32969 25.5547 2.32969C25.7445 2.54062 25.8383 2.89219 25.8383 3.28359H26.1969C26.4945 3.27891 26.9375 3.32344 26.9375 3.32344Z" fill="#2F7889"/>
<path d="M7.43047 10.575V24.9492M10.4562 10.575V24.9492M13.4844 10.575V24.9492M16.5102 10.575V24.9492M19.5359 10.575V24.9492M22.5641 10.575V24.9492M4.40469 22.0734H25.5898M4.40469 19.2H25.5898M4.40469 16.3242H25.5898M4.40469 13.4508H25.5898M4.40469 10.575V24.9492H25.5898V10.575H4.40469Z" stroke="#1E88E5" stroke-width="0.234375" stroke-miterlimit="10" stroke-linecap="square"/>
<path d="M24.8 11.5734C24.9631 11.5734 25.0953 11.4412 25.0953 11.2781C25.0953 11.115 24.9631 10.9828 24.8 10.9828C24.6369 10.9828 24.5047 11.115 24.5047 11.2781C24.5047 11.4412 24.6369 11.5734 24.8 11.5734Z" fill="#1E88E5"/>
<path d="M21.7578 11.5734C21.9209 11.5734 22.0531 11.4412 22.0531 11.2781C22.0531 11.115 21.9209 10.9828 21.7578 10.9828C21.5947 10.9828 21.4625 11.115 21.4625 11.2781C21.4625 11.4412 21.5947 11.5734 21.7578 11.5734Z" fill="#1E88E5"/>
<path d="M18.7156 11.5734C18.8787 11.5734 19.0109 11.4412 19.0109 11.2781C19.0109 11.115 18.8787 10.9828 18.7156 10.9828C18.5525 10.9828 18.4203 11.115 18.4203 11.2781C18.4203 11.4412 18.5525 11.5734 18.7156 11.5734Z" fill="#1E88E5"/>
<path d="M15.6711 11.5734C15.8342 11.5734 15.9664 11.4412 15.9664 11.2781C15.9664 11.115 15.8342 10.9828 15.6711 10.9828C15.508 10.9828 15.3758 11.115 15.3758 11.2781C15.3758 11.4412 15.508 11.5734 15.6711 11.5734Z" fill="#1E88E5"/>
<path d="M12.6289 11.5734C12.792 11.5734 12.9242 11.4412 12.9242 11.2781C12.9242 11.115 12.792 10.9828 12.6289 10.9828C12.4658 10.9828 12.3336 11.115 12.3336 11.2781C12.3336 11.4412 12.4658 11.5734 12.6289 11.5734Z" fill="#1E88E5"/>
<path d="M9.58673 11.5734C9.74982 11.5734 9.88204 11.4412 9.88204 11.2781C9.88204 11.115 9.74982 10.9828 9.58673 10.9828C9.42363 10.9828 9.29141 11.115 9.29141 11.2781C9.29141 11.4412 9.42363 11.5734 9.58673 11.5734Z" fill="#1E88E5"/>
<path d="M6.54453 11.5734C6.70763 11.5734 6.83985 11.4412 6.83985 11.2781C6.83985 11.115 6.70763 10.9828 6.54453 10.9828C6.38144 10.9828 6.24922 11.115 6.24922 11.2781C6.24922 11.4412 6.38144 11.5734 6.54453 11.5734Z" fill="#1E88E5"/>
<path d="M24.8 14.4492C24.9631 14.4492 25.0953 14.317 25.0953 14.1539C25.0953 13.9908 24.9631 13.8586 24.8 13.8586C24.6369 13.8586 24.5047 13.9908 24.5047 14.1539C24.5047 14.317 24.6369 14.4492 24.8 14.4492Z" fill="#1E88E5"/>
<path d="M21.7578 14.4492C21.9209 14.4492 22.0531 14.317 22.0531 14.1539C22.0531 13.9908 21.9209 13.8586 21.7578 13.8586C21.5947 13.8586 21.4625 13.9908 21.4625 14.1539C21.4625 14.317 21.5947 14.4492 21.7578 14.4492Z" fill="#1E88E5"/>
<path d="M18.7156 14.4492C18.8787 14.4492 19.0109 14.317 19.0109 14.1539C19.0109 13.9908 18.8787 13.8586 18.7156 13.8586C18.5525 13.8586 18.4203 13.9908 18.4203 14.1539C18.4203 14.317 18.5525 14.4492 18.7156 14.4492Z" fill="#1E88E5"/>
<path d="M15.6711 14.4492C15.8342 14.4492 15.9664 14.317 15.9664 14.1539C15.9664 13.9908 15.8342 13.8586 15.6711 13.8586C15.508 13.8586 15.3758 13.9908 15.3758 14.1539C15.3758 14.317 15.508 14.4492 15.6711 14.4492Z" fill="#1E88E5"/>
<path d="M12.6289 14.4492C12.792 14.4492 12.9242 14.317 12.9242 14.1539C12.9242 13.9908 12.792 13.8586 12.6289 13.8586C12.4658 13.8586 12.3336 13.9908 12.3336 14.1539C12.3336 14.317 12.4658 14.4492 12.6289 14.4492Z" fill="#1E88E5"/>
<path d="M9.58673 14.4492C9.74982 14.4492 9.88204 14.317 9.88204 14.1539C9.88204 13.9908 9.74982 13.8586 9.58673 13.8586C9.42363 13.8586 9.29141 13.9908 9.29141 14.1539C9.29141 14.317 9.42363 14.4492 9.58673 14.4492Z" fill="#1E88E5"/>
<path d="M6.54453 14.4492C6.70763 14.4492 6.83985 14.317 6.83985 14.1539C6.83985 13.9908 6.70763 13.8586 6.54453 13.8586C6.38144 13.8586 6.24922 13.9908 6.24922 14.1539C6.24922 14.317 6.38144 14.4492 6.54453 14.4492Z" fill="#1E88E5"/>
<path d="M24.8 17.3227C24.9631 17.3227 25.0953 17.1904 25.0953 17.0273C25.0953 16.8642 24.9631 16.732 24.8 16.732C24.6369 16.732 24.5047 16.8642 24.5047 17.0273C24.5047 17.1904 24.6369 17.3227 24.8 17.3227Z" fill="#1E88E5"/>
<path d="M21.7578 17.3227C21.9209 17.3227 22.0531 17.1904 22.0531 17.0273C22.0531 16.8642 21.9209 16.732 21.7578 16.732C21.5947 16.732 21.4625 16.8642 21.4625 17.0273C21.4625 17.1904 21.5947 17.3227 21.7578 17.3227Z" fill="#1E88E5"/>
<path d="M18.7156 17.3227C18.8787 17.3227 19.0109 17.1904 19.0109 17.0273C19.0109 16.8642 18.8787 16.732 18.7156 16.732C18.5525 16.732 18.4203 16.8642 18.4203 17.0273C18.4203 17.1904 18.5525 17.3227 18.7156 17.3227Z" fill="#1E88E5"/>
<path d="M15.6711 17.3227C15.8342 17.3227 15.9664 17.1904 15.9664 17.0273C15.9664 16.8642 15.8342 16.732 15.6711 16.732C15.508 16.732 15.3758 16.8642 15.3758 17.0273C15.3758 17.1904 15.508 17.3227 15.6711 17.3227Z" fill="#1E88E5"/>
<path d="M12.6289 17.3227C12.792 17.3227 12.9242 17.1904 12.9242 17.0273C12.9242 16.8642 12.792 16.732 12.6289 16.732C12.4658 16.732 12.3336 16.8642 12.3336 17.0273C12.3336 17.1904 12.4658 17.3227 12.6289 17.3227Z" fill="#1E88E5"/>
<path d="M9.58673 17.3227C9.74982 17.3227 9.88204 17.1904 9.88204 17.0273C9.88204 16.8642 9.74982 16.732 9.58673 16.732C9.42363 16.732 9.29141 16.8642 9.29141 17.0273C9.29141 17.1904 9.42363 17.3227 9.58673 17.3227Z" fill="#1E88E5"/>
<path d="M6.54453 17.3227C6.70763 17.3227 6.83985 17.1904 6.83985 17.0273C6.83985 16.8642 6.70763 16.732 6.54453 16.732C6.38144 16.732 6.24922 16.8642 6.24922 17.0273C6.24922 17.1904 6.38144 17.3227 6.54453 17.3227Z" fill="#1E88E5"/>
<path d="M24.8 23.0719C24.9631 23.0719 25.0953 22.9397 25.0953 22.7766C25.0953 22.6135 24.9631 22.4812 24.8 22.4812C24.6369 22.4812 24.5047 22.6135 24.5047 22.7766C24.5047 22.9397 24.6369 23.0719 24.8 23.0719Z" fill="#1E88E5"/>
<path d="M21.7578 23.0719C21.9209 23.0719 22.0531 22.9397 22.0531 22.7766C22.0531 22.6135 21.9209 22.4812 21.7578 22.4812C21.5947 22.4812 21.4625 22.6135 21.4625 22.7766C21.4625 22.9397 21.5947 23.0719 21.7578 23.0719Z" fill="#1E88E5"/>
<path d="M18.7156 23.0719C18.8787 23.0719 19.0109 22.9397 19.0109 22.7766C19.0109 22.6135 18.8787 22.4812 18.7156 22.4812C18.5525 22.4812 18.4203 22.6135 18.4203 22.7766C18.4203 22.9397 18.5525 23.0719 18.7156 23.0719Z" fill="#1E88E5"/>
<path d="M15.6711 23.0719C15.8342 23.0719 15.9664 22.9397 15.9664 22.7766C15.9664 22.6135 15.8342 22.4812 15.6711 22.4812C15.508 22.4812 15.3758 22.6135 15.3758 22.7766C15.3758 22.9397 15.508 23.0719 15.6711 23.0719Z" fill="#1E88E5"/>
<path d="M12.6289 23.0719C12.792 23.0719 12.9242 22.9397 12.9242 22.7766C12.9242 22.6135 12.792 22.4812 12.6289 22.4812C12.4658 22.4812 12.3336 22.6135 12.3336 22.7766C12.3336 22.9397 12.4658 23.0719 12.6289 23.0719Z" fill="#1E88E5"/>
<path d="M9.58673 23.0719C9.74982 23.0719 9.88204 22.9397 9.88204 22.7766C9.88204 22.6135 9.74982 22.4812 9.58673 22.4812C9.42363 22.4812 9.29141 22.6135 9.29141 22.7766C9.29141 22.9397 9.42363 23.0719 9.58673 23.0719Z" fill="#1E88E5"/>
<path d="M6.54453 23.0719C6.70763 23.0719 6.83985 22.9397 6.83985 22.7766C6.83985 22.6135 6.70763 22.4812 6.54453 22.4812C6.38144 22.4812 6.24922 22.6135 6.24922 22.7766C6.24922 22.9397 6.38144 23.0719 6.54453 23.0719Z" fill="#1E88E5"/>
<path d="M24.8 20.1984C24.9631 20.1984 25.0953 20.0662 25.0953 19.9031C25.0953 19.74 24.9631 19.6078 24.8 19.6078C24.6369 19.6078 24.5047 19.74 24.5047 19.9031C24.5047 20.0662 24.6369 20.1984 24.8 20.1984Z" fill="#1E88E5"/>
<path d="M21.7578 20.1984C21.9209 20.1984 22.0531 20.0662 22.0531 19.9031C22.0531 19.74 21.9209 19.6078 21.7578 19.6078C21.5947 19.6078 21.4625 19.74 21.4625 19.9031C21.4625 20.0662 21.5947 20.1984 21.7578 20.1984Z" fill="#1E88E5"/>
<path d="M18.7156 20.1984C18.8787 20.1984 19.0109 20.0662 19.0109 19.9031C19.0109 19.74 18.8787 19.6078 18.7156 19.6078C18.5525 19.6078 18.4203 19.74 18.4203 19.9031C18.4203 20.0662 18.5525 20.1984 18.7156 20.1984Z" fill="#1E88E5"/>
<path d="M15.6711 20.1984C15.8342 20.1984 15.9664 20.0662 15.9664 19.9031C15.9664 19.74 15.8342 19.6078 15.6711 19.6078C15.508 19.6078 15.3758 19.74 15.3758 19.9031C15.3758 20.0662 15.508 20.1984 15.6711 20.1984Z" fill="#1E88E5"/>
<path d="M12.6289 20.1984C12.792 20.1984 12.9242 20.0662 12.9242 19.9031C12.9242 19.74 12.792 19.6078 12.6289 19.6078C12.4658 19.6078 12.3336 19.74 12.3336 19.9031C12.3336 20.0662 12.4658 20.1984 12.6289 20.1984Z" fill="#1E88E5"/>
<path d="M9.58673 20.1984C9.74982 20.1984 9.88204 20.0662 9.88204 19.9031C9.88204 19.74 9.74982 19.6078 9.58673 19.6078C9.42363 19.6078 9.29141 19.74 9.29141 19.9031C9.29141 20.0662 9.42363 20.1984 9.58673 20.1984Z" fill="#1E88E5"/>
<path d="M6.54453 20.1984C6.70763 20.1984 6.83985 20.0662 6.83985 19.9031C6.83985 19.74 6.70763 19.6078 6.54453 19.6078C6.38144 19.6078 6.24922 19.74 6.24922 19.9031C6.24922 20.0662 6.38144 20.1984 6.54453 20.1984Z" fill="#1E88E5"/>
<defs>
<linearGradient id="paint0_linear_100_645" x1="27.9336" y1="16.0854" x2="27.9336" y2="26.0981" gradientUnits="userSpaceOnUse">
<stop offset="0.337" stop-color="#616161"/>
<stop offset="1" stop-color="#616161" stop-opacity="0"/>
</linearGradient>
</defs>
</svg>
