<svg width="51" height="50" viewBox="0 0 51 50" fill="none" xmlns="http://www.w3.org/2000/svg">
<path d="M9.46485 36.0469C9.38282 36.0156 9.29297 36 9.20704 36.0078C8.69532 36.0429 6.02344 38.4258 5.32422 40.1445C4.84766 41.3164 5.41407 42.6562 6.58594 43.1328C7.75782 43.6094 9.10157 43.0429 9.57813 41.8711C10.1055 40.5703 10.25 36.3672 9.46485 36.0469ZM17.9531 42.375C17.8711 42.3398 17.7813 42.3281 17.6953 42.3359C17.1836 42.3711 14.5117 44.7539 13.8125 46.4726C13.3359 47.6445 13.9023 48.9844 15.0742 49.4609C16.2461 49.9375 17.5898 49.3711 18.0664 48.1992C18.5938 46.9023 18.7383 42.6953 17.9531 42.375ZM28.4961 37.8476C28.4141 37.8125 28.3242 37.8008 28.2383 37.8047C27.7266 37.8398 25.0547 40.2226 24.3555 41.9414C23.8789 43.1133 24.4453 44.4531 25.6172 44.9297C26.7891 45.4062 28.1328 44.8398 28.6094 43.6679C29.1367 42.3711 29.2813 38.1679 28.4961 37.8476ZM38.0899 40.6172C38.0078 40.5859 37.918 40.5703 37.832 40.5781C37.3203 40.6133 34.6484 42.9961 33.9492 44.7148C33.4727 45.8828 34.0391 47.2265 35.2109 47.7031C36.3828 48.1797 37.7266 47.6133 38.2031 46.4414C38.7305 45.1406 38.875 40.9336 38.0899 40.6172Z" fill="#70B2E2"/>
<path d="M31.375 7.8125C26.7422 7.8125 22.9844 11.5664 22.9844 16.1992C22.9844 20.832 26.7422 24.5898 31.375 24.5898C36.0078 24.5898 39.7617 20.832 39.7617 16.1992C39.7656 11.5664 36.0117 7.8125 31.375 7.8125ZM29.5703 6.28125H33.1797C33.3477 6.28125 33.5039 6.19922 33.5977 6.05859C33.6914 5.92578 33.7148 5.75 33.6562 5.59375L31.8555 0.703125C31.7812 0.503906 31.5898 0.367188 31.3789 0.367188C31.1641 0.367188 30.9727 0.5 30.9023 0.703125L29.0937 5.59766C29.0391 5.75391 29.0586 5.92969 29.1523 6.0625C29.2461 6.20313 29.4062 6.28125 29.5703 6.28125ZM39.668 10.4648C39.7258 10.523 39.7969 10.5661 39.8752 10.5906C39.9535 10.6151 40.0365 10.6202 40.1172 10.6055C40.2812 10.5742 40.418 10.4688 40.4883 10.3164L42.6719 5.57812C42.7617 5.38672 42.7188 5.15625 42.5703 5.00391C42.4966 4.93004 42.402 4.88066 42.2992 4.86249C42.1965 4.84432 42.0906 4.85823 41.9961 4.90234L37.2578 7.08594C37.1094 7.15625 37 7.29297 36.9727 7.45703C36.9414 7.62109 36.9961 7.78906 37.1133 7.91016L39.668 10.4648ZM46.875 15.7227L41.9805 13.918C41.8242 13.8594 41.6484 13.8828 41.5117 13.9805C41.375 14.0781 41.293 14.2305 41.293 14.3984V18.0117C41.2928 18.0788 41.3059 18.1452 41.3316 18.2072C41.3573 18.2692 41.395 18.3254 41.4426 18.3727C41.4902 18.4199 41.5468 18.4572 41.6089 18.4824C41.6711 18.5076 41.7376 18.5203 41.8047 18.5195C41.8633 18.5195 41.9219 18.5078 41.9805 18.4883L46.875 16.6836C47.0742 16.6094 47.207 16.418 47.207 16.2031C47.207 15.9844 47.0742 15.793 46.875 15.7227ZM40.4883 22.0859C40.418 21.9336 40.2773 21.8242 40.1172 21.7969C39.9531 21.7656 39.7852 21.8203 39.668 21.9375L37.1133 24.4961C36.9961 24.6094 36.9414 24.7812 36.9727 24.9453C37 25.1094 37.1094 25.25 37.2578 25.3203L41.9961 27.5039C42.0906 27.5469 42.1958 27.5605 42.2982 27.5431C42.4005 27.5257 42.4953 27.478 42.5703 27.4062C42.7227 27.2539 42.7617 27.0273 42.6719 26.832L40.4883 22.0859ZM33.1797 26.1172H29.5664C29.4023 26.1172 29.2422 26.1992 29.1484 26.3359C29.0547 26.4727 29.0313 26.6484 29.0859 26.8047L30.8945 31.6992C30.9688 31.8984 31.1562 32.0312 31.3711 32.0312C31.5859 32.0312 31.7734 31.8984 31.8477 31.6992L33.6562 26.8047C33.7148 26.6484 33.6914 26.4727 33.5938 26.3359C33.5489 26.2674 33.4873 26.2115 33.4149 26.1732C33.3425 26.1349 33.2616 26.1157 33.1797 26.1172ZM23.0859 21.9336C22.9648 21.8164 22.8008 21.7656 22.6367 21.793C22.4727 21.8203 22.3359 21.9297 22.2617 22.082L20.0781 26.8203C20.0336 26.9149 20.0193 27.0209 20.0373 27.1239C20.0552 27.2269 20.1045 27.3218 20.1785 27.3958C20.2524 27.4697 20.3473 27.519 20.4503 27.5369C20.5533 27.5549 20.6593 27.5406 20.7539 27.4961L25.4922 25.3125C25.6445 25.2422 25.75 25.1016 25.7813 24.9375C25.8086 24.7734 25.7578 24.6055 25.6406 24.4883L23.0859 21.9336ZM20.9531 18.5156C21.0547 18.5156 21.1562 18.4844 21.2422 18.4258C21.3789 18.332 21.4609 18.1719 21.4609 18.0078L21.457 14.3945C21.457 14.2266 21.375 14.0703 21.2383 13.9766C21.1016 13.8828 20.9258 13.8594 20.7695 13.918L15.875 15.7227C15.6758 15.7969 15.543 15.9883 15.543 16.2031C15.543 16.4141 15.6758 16.6055 15.875 16.6836L20.7695 18.4883C20.832 18.5039 20.8906 18.5156 20.9531 18.5156ZM22.2656 10.3164C22.3359 10.4688 22.4766 10.5742 22.6367 10.6055C22.668 10.6094 22.6992 10.6133 22.7266 10.6133C22.8633 10.6133 22.9922 10.5625 23.0859 10.4648L25.6406 7.91016C25.7578 7.79297 25.8086 7.625 25.7813 7.45703C25.7539 7.29297 25.6445 7.15234 25.4922 7.08594L20.7539 4.90234C20.6593 4.8578 20.5533 4.84353 20.4503 4.86149C20.3473 4.87944 20.2524 4.92875 20.1785 5.00268C20.1045 5.0766 20.0552 5.17154 20.0373 5.27453C20.0193 5.37752 20.0336 5.48354 20.0781 5.57812L22.2656 10.3164Z" fill="#FFB74D"/>
<path d="M37.8906 20.6523C37.8867 20.6289 37.8906 20.6094 37.8906 20.5859C37.8906 17.6016 35.4727 15.1836 32.4883 15.1836C32.1055 15.1836 31.7305 15.2266 31.3672 15.3008C30.2969 12.6953 27.7383 10.8594 24.7461 10.8594C22.5 10.8594 20.4961 11.8945 19.1836 13.5156C18.3398 13.0859 17.3867 12.8398 16.3711 12.8398C13.1367 12.8398 10.4844 15.3047 10.1758 18.4531C6.65625 18.6367 3.83593 21.5195 3.78906 25.0937C3.74218 28.8203 6.72265 31.8789 10.4492 31.9258C10.7383 31.9297 11.0234 31.9102 11.3008 31.8789C12.7383 34.9141 15.832 37.0117 19.4141 37.0117C21.5742 37.0117 23.5586 36.2461 25.1055 34.9766C26.2891 35.8516 27.75 36.3789 29.3359 36.3789C32.5898 36.3789 35.332 34.1953 36.1836 31.2148C36.7187 31.3945 37.293 31.4922 37.8867 31.4922C40.8789 31.4922 43.3047 29.0664 43.3047 26.0742C43.3125 23.082 40.8828 20.6523 37.8906 20.6523Z" fill="#E3EBEE"/>
<path d="M41.0781 21.6875C42.3047 22.9258 41.4375 25.7695 40.5938 26.6992C38.9336 28.5195 35.8828 28.0938 34.6562 27.832C34.3242 27.7617 34.2734 27.7852 34.1641 27.8516C34.0664 27.9102 34.0234 28.0039 33.918 28.2266C33.5234 29.0742 32.5078 30.7227 30.3594 31.3867C28.1211 32.0781 26.0078 31.0273 25.0195 30.3945C24.6445 30.1562 24.6289 30.1523 24.4609 30.1523C24.2891 30.1523 24.1172 30.2812 23.918 30.4414C23.0273 31.1445 20.9844 32.3828 17.8398 32.2031C14.7539 32.0273 12.9922 30.125 12.3867 29.1484C12.2695 28.9609 12.1445 28.8047 12.0039 28.7891C11.8398 28.7734 11.6562 28.9414 11.5156 29.0781C10.2031 30.3555 6.07422 30.7383 4.70312 28.5625C6.09375 30.7969 8.24609 31.9023 10.457 31.9297C10.7461 31.9336 11.0312 31.9141 11.3086 31.8828C12.7461 34.918 15.8398 37.0156 19.4219 37.0156C21.582 37.0156 23.5664 36.25 25.1133 34.9805C26.2969 35.8555 27.7578 36.3828 29.3437 36.3828C32.5977 36.3828 35.3398 34.1992 36.1914 31.2187C36.7266 31.3984 37.3008 31.4961 37.8945 31.4961C40.8867 31.4961 43.3125 29.0703 43.3125 26.0781C43.3125 24.4805 42.5117 22.6797 41.0781 21.6875Z" fill="#B9CDD2"/>
</svg>
